<svg width="920" height="1180" viewBox="0 0 920 1180" fill="none" xmlns="http://www.w3.org/2000/svg">
  <rect width="920" height="1180" rx="28" fill="#111827"/>
  <text x="42" y="72" fill="#F8FAFC" font-family="Inter, Arial, sans-serif" font-size="34" font-weight="800">Telegram-интерфейс клиента</text>
  <text x="42" y="112" fill="#CBD5E1" font-family="Inter, Arial, sans-serif" font-size="20" font-weight="500">Диалог, акции, корзина и история заказов в одном сценарии</text>

  <g>
    <rect x="42" y="150" width="398" height="470" rx="20" fill="#F8FAFC"/>
    <image href="dialog.jpg" x="62" y="174" width="358" height="390" preserveAspectRatio="xMidYMid meet"/>
    <rect x="82" y="574" width="318" height="30" rx="15" fill="#0EA5E9"/>
    <text x="108" y="596" fill="#FFFFFF" font-family="Inter, Arial, sans-serif" font-size="17" font-weight="700">AI-диалог и подбор товаров</text>
  </g>

  <g>
    <rect x="480" y="150" width="398" height="470" rx="20" fill="#F8FAFC"/>
    <image href="promotions.jpg" x="500" y="174" width="358" height="390" preserveAspectRatio="xMidYMid meet"/>
    <rect x="520" y="574" width="318" height="30" rx="15" fill="#DB2777"/>
    <text x="568" y="596" fill="#FFFFFF" font-family="Inter, Arial, sans-serif" font-size="17" font-weight="700">Акции и скидки</text>
  </g>

  <g>
    <rect x="42" y="660" width="398" height="470" rx="20" fill="#F8FAFC"/>
    <image href="cart.jpg" x="62" y="684" width="358" height="390" preserveAspectRatio="xMidYMid meet"/>
    <rect x="82" y="1084" width="318" height="30" rx="15" fill="#6366F1"/>
    <text x="138" y="1106" fill="#FFFFFF" font-family="Inter, Arial, sans-serif" font-size="17" font-weight="700">Корзина с товарами</text>
  </g>

  <g>
    <rect x="480" y="660" width="398" height="470" rx="20" fill="#F8FAFC"/>
    <image href="orders.jpg" x="500" y="684" width="358" height="390" preserveAspectRatio="xMidYMid meet"/>
    <rect x="520" y="1084" width="318" height="30" rx="15" fill="#10B981"/>
    <text x="605" y="1106" fill="#FFFFFF" font-family="Inter, Arial, sans-serif" font-size="17" font-weight="700">Мои заказы</text>
  </g>
</svg>
